<svg width="1200" height="800" viewBox="0 0 1200 800" fill="none" xmlns="http://www.w3.org/2000/svg">
  <rect width="1200" height="800" fill="#0f172a"/>
  <rect x="64" y="64" width="1072" height="672" rx="40" fill="#111827" stroke="#2dd4bf" stroke-opacity="0.35" stroke-width="2"/>
  <rect x="132" y="132" width="936" height="536" rx="28" fill="#020617"/>
  <path d="M600 132V668" stroke="#334155" stroke-width="3" stroke-dasharray="10 14"/>
  <g opacity="0.96">
    <rect x="176" y="176" width="108" height="150" rx="12" fill="#14b8a6"/>
    <rect x="312" y="176" width="108" height="150" rx="12" fill="#f59e0b"/>
    <rect x="448" y="176" width="108" height="150" rx="12" fill="#38bdf8"/>
    <rect x="176" y="350" width="108" height="150" rx="12" fill="#ef4444"/>
    <rect x="312" y="350" width="108" height="150" rx="12" fill="#a78bfa"/>
    <rect x="448" y="350" width="108" height="150" rx="12" fill="#22c55e"/>
    <rect x="176" y="524" width="108" height="98" rx="12" fill="#475569"/>
    <rect x="312" y="524" width="108" height="98" rx="12" fill="#475569"/>
    <rect x="448" y="524" width="108" height="98" rx="12" fill="#475569"/>
  </g>
  <g opacity="0.96">
    <rect x="644" y="176" width="108" height="150" rx="12" fill="#38bdf8"/>
    <rect x="780" y="176" width="108" height="150" rx="12" fill="#22c55e"/>
    <rect x="916" y="176" width="108" height="150" rx="12" fill="#ef4444"/>
    <rect x="644" y="350" width="108" height="150" rx="12" fill="#f59e0b"/>
    <rect x="780" y="350" width="108" height="150" rx="12" fill="#14b8a6"/>
    <rect x="916" y="350" width="108" height="150" rx="12" fill="#a78bfa"/>
    <rect x="644" y="524" width="108" height="98" rx="12" fill="#475569"/>
    <rect x="780" y="524" width="108" height="98" rx="12" fill="#475569"/>
    <rect x="916" y="524" width="108" height="98" rx="12" fill="#475569"/>
  </g>
  <g opacity="0.28">
    <circle cx="230" cy="251" r="32" fill="#ffffff"/>
    <circle cx="366" cy="251" r="32" fill="#ffffff"/>
    <circle cx="502" cy="251" r="32" fill="#ffffff"/>
    <circle cx="698" cy="251" r="32" fill="#ffffff"/>
    <circle cx="834" cy="251" r="32" fill="#ffffff"/>
    <circle cx="970" cy="251" r="32" fill="#ffffff"/>
  </g>
  <text x="132" y="92" fill="#ccfbf1" font-family="Arial, Helvetica, sans-serif" font-size="32" font-weight="700" letter-spacing="-1">Bindermap</text>
  <text x="132" y="710" fill="#94a3b8" font-family="Arial, Helvetica, sans-serif" font-size="24" letter-spacing="-0.5">Plan your Pokemon card binders before touching a single sleeve.</text>
</svg>
